<svg width="424" height="168" viewBox="0 0 424 168" fill="none" xmlns="http://www.w3.org/2000/svg">
<path fill-rule="evenodd" clip-rule="evenodd" d="M60.8105 17.5972L60.8105 26.3944L9.43497 26.3944L9.43496 93.9939L0.750001 93.9939L0.750004 17.5972L60.8105 17.5972ZM0.750006 168L0.749999 131.22L9.43496 131.22L9.43497 168L0.750006 168Z" fill="black"/>
<path fill-rule="evenodd" clip-rule="evenodd" d="M115.776 17.5957L148.951 17.5957L148.951 41.4021L140.266 41.4021L140.266 26.393L119.393 26.393L71.5652 75.2185L96.1135 100.084L89.9723 106.305L59.3067 75.2427L115.776 17.5957Z" fill="black"/>
<path fill-rule="evenodd" clip-rule="evenodd" d="M148.95 81.4453V167.936H45.7246V159.139H140.265V81.4453H148.95Z" fill="black"/>
<path d="M202.916 167.267H193.727L186.998 156.273L185.117 152.535L180.775 157.299V167.267H173.25V113.397H180.703V142.934L180.558 148.651L193.221 133.626H202.844L190.326 147.698L202.916 167.267Z" fill="black"/>
<path d="M203.855 133.626H212.755L219.919 148.797L222.234 154.881L224.55 148.797L231.641 133.626H240.323L222.885 167.267H221.366L203.855 133.626Z" fill="black"/>
<path d="M260.005 168C257.014 168 254.24 167.292 251.684 165.875C249.175 164.409 247.149 162.357 245.606 159.718C244.11 157.031 243.362 153.904 243.362 150.337C243.362 146.819 244.014 143.74 245.316 141.102C246.667 138.463 248.572 136.411 251.032 134.945C253.493 133.479 256.387 132.746 259.715 132.746C261.645 132.746 263.454 133.088 265.142 133.772C266.83 134.456 268.253 135.312 269.411 136.338C270.569 137.315 271.341 138.292 271.727 139.269L271.871 133.626H279.324V167.267H271.944L271.799 161.331C270.979 163.09 269.483 164.653 267.313 166.021C265.142 167.341 262.706 168 260.005 168ZM261.307 161.404C264.057 161.404 266.372 160.451 268.253 158.545C270.135 156.591 271.075 154.05 271.075 150.923V150.41C271.075 148.309 270.641 146.428 269.773 144.766C268.905 143.105 267.723 141.81 266.227 140.882C264.732 139.953 263.092 139.489 261.307 139.489C258.22 139.489 255.832 140.515 254.144 142.568C252.455 144.571 251.611 147.185 251.611 150.41C251.611 153.684 252.431 156.347 254.071 158.399C255.76 160.402 258.172 161.404 261.307 161.404Z" fill="black"/>
<path d="M304.521 168C301.531 168 298.757 167.292 296.2 165.875C293.692 164.409 291.666 162.357 290.122 159.718C288.627 157.031 287.879 153.904 287.879 150.337C287.879 145.011 289.35 140.76 292.293 137.584C295.236 134.359 299.215 132.746 304.232 132.746C307.03 132.746 309.586 133.455 311.902 134.872C314.217 136.24 315.785 137.901 316.605 139.856L316.243 134.139V113.397H323.913V167.267H316.46L316.316 161.331C315.496 163.09 314 164.653 311.829 166.021C309.659 167.341 307.223 168 304.521 168ZM305.824 161.331C308.573 161.331 310.889 160.378 312.77 158.472C314.651 156.518 315.592 153.977 315.592 150.85V150.337C315.592 148.236 315.158 146.354 314.29 144.693C313.421 143.032 312.239 141.737 310.744 140.809C309.249 139.88 307.609 139.416 305.824 139.416C302.737 139.416 300.349 140.442 298.66 142.494C296.972 144.498 296.128 147.112 296.128 150.337C296.128 153.61 296.948 156.273 298.588 158.326C300.276 160.329 302.688 161.331 305.824 161.331Z" fill="black"/>
<path d="M334.062 133.626H341.876V140.222C342.648 137.975 343.902 136.167 345.639 134.799C347.375 133.43 349.353 132.746 351.572 132.746C353.116 132.746 354.177 132.893 354.756 133.186L353.671 141.175C353.236 140.882 352.296 140.735 350.849 140.735C348.581 140.735 346.507 141.468 344.626 142.934C342.793 144.4 341.876 146.745 341.876 149.97V167.267H334.062V133.626Z" fill="black"/>
<path d="M374.971 168C371.98 168 369.206 167.292 366.65 165.875C364.141 164.409 362.115 162.357 360.572 159.718C359.076 157.031 358.329 153.904 358.329 150.337C358.329 146.819 358.98 143.74 360.282 141.102C361.633 138.463 363.538 136.411 365.998 134.945C368.459 133.479 371.353 132.746 374.681 132.746C376.611 132.746 378.42 133.088 380.108 133.772C381.796 134.456 383.219 135.312 384.377 136.338C385.535 137.315 386.307 138.292 386.693 139.269L386.837 133.626H394.29V167.267H386.91L386.765 161.331C385.945 163.09 384.45 164.653 382.279 166.021C380.108 167.341 377.672 168 374.971 168ZM376.273 161.404C379.023 161.404 381.338 160.451 383.219 158.545C385.101 156.591 386.041 154.05 386.041 150.923V150.41C386.041 148.309 385.607 146.428 384.739 144.766C383.871 143.105 382.689 141.81 381.193 140.882C379.698 139.953 378.058 139.489 376.273 139.489C373.186 139.489 370.798 140.515 369.11 142.568C367.421 144.571 366.577 147.185 366.577 150.41C366.577 153.684 367.397 156.347 369.037 158.399C370.726 160.402 373.138 161.404 376.273 161.404Z" fill="black"/>
<path d="M407.693 140.076H401.832V133.626H407.693V119.92L415.58 118.161V133.626H423.25V140.076H415.58V167.267H407.693V140.076Z" fill="black"/>
</svg>
