<svg width="95" height="46" viewBox="0 0 95 46" fill="none" xmlns="http://www.w3.org/2000/svg">
<path fill-rule="evenodd" clip-rule="evenodd" d="M12.9375 8.61792L12.9375 10.512L1.8715 10.512L1.8715 25.0663L0.000810867 25.0663L0.000811577 8.61792L12.9375 8.61792ZM0.000812086 40.9998L0.000810521 33.0811L1.8715 33.0811L1.8715 40.9998L0.000812086 40.9998Z" fill="white"/>
<path fill-rule="evenodd" clip-rule="evenodd" d="M24.7733 8.61737L31.9189 8.61738V13.7429L30.0482 13.7429V10.5114L25.5524 10.5114L15.2505 21.0237L20.538 26.3773L19.2152 27.7166L12.61 21.0289L24.7733 8.61737Z" fill="white"/>
<path fill-rule="evenodd" clip-rule="evenodd" d="M31.9216 22.3647V40.9864H9.6875V39.0923H30.051V22.3647H31.9216Z" fill="white"/>
<path d="M46.5266 28.8389H44.505L43.0245 26.4228L42.6107 25.6013L41.6555 26.6483V28.8389H40V17H41.6396V23.4913L41.6078 24.7477L44.3935 21.4456H46.5107L43.7568 24.5383L46.5266 28.8389Z" fill="white"/>
<path d="M46.7332 21.4456H48.6912L50.2671 24.7799L50.7765 26.1168L51.2859 24.7799L52.8459 21.4456H54.7562L50.9198 28.8389H50.5855L46.7332 21.4456Z" fill="white"/>
<path d="M59.086 29C58.4281 29 57.8178 28.8443 57.2554 28.5329C56.7035 28.2107 56.2578 27.7597 55.9182 27.1799C55.5892 26.5893 55.4247 25.902 55.4247 25.1181C55.4247 24.345 55.568 23.6685 55.8546 23.0886C56.1517 22.5087 56.5709 22.0577 57.1121 21.7356C57.6534 21.4134 58.2901 21.2523 59.0224 21.2523C59.4468 21.2523 59.8448 21.3275 60.2162 21.4779C60.5877 21.6282 60.9007 21.8161 61.1554 22.0416C61.4101 22.2564 61.5799 22.4711 61.6648 22.6859L61.6967 21.4456H63.3363V28.8389H61.7126L61.6808 27.5342C61.5003 27.9208 61.1714 28.2644 60.6938 28.5651C60.2162 28.855 59.6803 29 59.086 29ZM59.3726 27.5503C59.9775 27.5503 60.4869 27.3409 60.9007 26.9221C61.3146 26.4926 61.5216 25.9342 61.5216 25.247V25.1342C61.5216 24.6725 61.4261 24.2591 61.235 23.894C61.044 23.5289 60.784 23.2443 60.455 23.0403C60.126 22.8362 59.7652 22.7342 59.3726 22.7342C58.6934 22.7342 58.1681 22.9597 57.7966 23.4107C57.4252 23.851 57.2395 24.4255 57.2395 25.1342C57.2395 25.8537 57.4199 26.4389 57.7807 26.8899C58.1521 27.3302 58.6828 27.5503 59.3726 27.5503Z" fill="white"/>
<path d="M68.8797 29C68.2217 29 67.6115 28.8443 67.0491 28.5329C66.4972 28.2107 66.0515 27.7597 65.7119 27.1799C65.3829 26.5893 65.2184 25.902 65.2184 25.1181C65.2184 23.9477 65.5421 23.0134 66.1895 22.3154C66.8368 21.6067 67.7123 21.2523 68.816 21.2523C69.4315 21.2523 69.994 21.4081 70.5034 21.7195C71.0128 22.0201 71.3577 22.3852 71.5381 22.8148L71.4585 21.5584V17H73.1459V28.8389H71.5063L71.4744 27.5342C71.294 27.9208 70.965 28.2644 70.4875 28.5651C70.0099 28.855 69.474 29 68.8797 29ZM69.1662 27.5342C69.7711 27.5342 70.2805 27.3248 70.6944 26.906C71.1083 26.4765 71.3152 25.9181 71.3152 25.2309V25.1181C71.3152 24.6564 71.2197 24.243 71.0287 23.8779C70.8377 23.5128 70.5777 23.2282 70.2487 23.0242C69.9197 22.8201 69.5589 22.7181 69.1662 22.7181C68.487 22.7181 67.9617 22.9436 67.5903 23.3946C67.2189 23.8349 67.0331 24.4094 67.0331 25.1181C67.0331 25.8376 67.2136 26.4228 67.5744 26.8738C67.9458 27.3141 68.4764 27.5342 69.1662 27.5342Z" fill="white"/>
<path d="M75.3786 21.4456H77.0978V22.8953C77.2676 22.4013 77.5435 22.004 77.9256 21.7034C78.3076 21.4027 78.7427 21.2523 79.2309 21.2523C79.5705 21.2523 79.804 21.2846 79.9313 21.349L79.6925 23.1047C79.597 23.0403 79.3901 23.0081 79.0717 23.0081C78.5729 23.0081 78.1166 23.1691 77.7027 23.4913C77.2994 23.8134 77.0978 24.3289 77.0978 25.0376V28.8389H75.3786V21.4456Z" fill="white"/>
<path d="M84.3786 29C83.7206 29 83.1104 28.8443 82.5479 28.5329C81.9961 28.2107 81.5504 27.7597 81.2108 27.1799C80.8818 26.5893 80.7173 25.902 80.7173 25.1181C80.7173 24.345 80.8606 23.6685 81.1471 23.0886C81.4442 22.5087 81.8634 22.0577 82.4047 21.7356C82.9459 21.4134 83.5826 21.2523 84.3149 21.2523C84.7394 21.2523 85.1373 21.3275 85.5088 21.4779C85.8802 21.6282 86.1933 21.8161 86.448 22.0416C86.7027 22.2564 86.8725 22.4711 86.9574 22.6859L86.9892 21.4456H88.6288V28.8389H87.0051L86.9733 27.5342C86.7929 27.9208 86.4639 28.2644 85.9863 28.5651C85.5088 28.855 84.9729 29 84.3786 29ZM84.6651 27.5503C85.27 27.5503 85.7794 27.3409 86.1933 26.9221C86.6072 26.4926 86.8141 25.9342 86.8141 25.247V25.1342C86.8141 24.6725 86.7186 24.2591 86.5276 23.894C86.3366 23.5289 86.0765 23.2443 85.7476 23.0403C85.4186 22.8362 85.0578 22.7342 84.6651 22.7342C83.9859 22.7342 83.4606 22.9597 83.0892 23.4107C82.7177 23.851 82.532 24.4255 82.532 25.1342C82.532 25.8537 82.7124 26.4389 83.0732 26.8899C83.4447 27.3302 83.9753 27.5503 84.6651 27.5503Z" fill="white"/>
<path d="M91.5775 22.8631H90.2881V21.4456H91.5775V18.4336L93.3126 18.047V21.4456H95V22.8631H93.3126V28.8389H91.5775V22.8631Z" fill="white"/>
</svg>
