<svg width="40" height="100" viewBox="0 0 40 100" fill="none" xmlns="http://www.w3.org/2000/svg">
<rect x="40" y="100" width="40" height="100" transform="rotate(-180 40 100)" fill="black"/>
<path d="M18.9342 50L24.2442 44.69C24.5236 44.4089 24.6804 44.0288 24.6804 43.6325C24.6804 43.2362 24.5236 42.856 24.2442 42.575C24.1048 42.4344 23.9389 42.3228 23.7561 42.2466C23.5733 42.1705 23.3773 42.1313 23.1792 42.1313C22.9812 42.1313 22.7852 42.1705 22.6024 42.2466C22.4196 42.3228 22.2537 42.4344 22.1142 42.575L15.7542 48.935C15.6137 49.0744 15.5021 49.2403 15.4259 49.4231C15.3498 49.6059 15.3105 49.802 15.3105 50C15.3105 50.198 15.3498 50.3941 15.4259 50.5768C15.5021 50.7596 15.6137 50.9255 15.7542 51.065L22.1142 57.5C22.2544 57.639 22.4206 57.749 22.6034 57.8236C22.7861 57.8983 22.9818 57.9361 23.1792 57.935C23.3767 57.9361 23.5723 57.8983 23.7551 57.8236C23.9379 57.749 24.1041 57.639 24.2442 57.5C24.5236 57.2189 24.6804 56.8388 24.6804 56.4425C24.6804 56.0462 24.5236 55.666 24.2442 55.385L18.9342 50Z" fill="white"/>
</svg>
