<svg width="40" height="100" viewBox="0 0 40 100" fill="none" xmlns="http://www.w3.org/2000/svg">
<rect width="40" height="100" fill="black"/>
<path d="M21.0658 50L15.7558 55.31C15.4764 55.5911 15.3196 55.9712 15.3196 56.3675C15.3196 56.7638 15.4764 57.144 15.7558 57.425C15.8952 57.5656 16.0611 57.6772 16.2439 57.7534C16.4267 57.8295 16.6227 57.8687 16.8208 57.8687C17.0188 57.8687 17.2148 57.8295 17.3976 57.7534C17.5804 57.6772 17.7463 57.5656 17.8858 57.425L24.2458 51.065C24.3863 50.9256 24.4979 50.7597 24.5741 50.5769C24.6502 50.3941 24.6895 50.198 24.6895 50C24.6895 49.802 24.6502 49.6059 24.5741 49.4232C24.4979 49.2404 24.3863 49.0745 24.2458 48.935L17.8858 42.5C17.7456 42.361 17.5794 42.251 17.3966 42.1764C17.2139 42.1017 17.0182 42.0639 16.8208 42.065C16.6233 42.0639 16.4277 42.1017 16.2449 42.1764C16.0621 42.251 15.8959 42.361 15.7558 42.5C15.4764 42.7811 15.3196 43.1612 15.3196 43.5575C15.3196 43.9538 15.4764 44.334 15.7558 44.615L21.0658 50Z" fill="white"/>
</svg>
