<svg width="45" height="45" viewBox="0 0 45 45" fill="none" xmlns="http://www.w3.org/2000/svg">
<rect width="45" height="45" fill="black"/>
<path d="M37.2405 26.9214C37.0549 26.8737 36.8616 26.8631 36.6719 26.8903C36.4822 26.9174 36.2997 26.9818 36.1349 27.0798C35.9701 27.1777 35.8263 27.3072 35.7118 27.4609C35.5972 27.6146 35.5142 27.7894 35.4674 27.9753C35.2005 29.0054 34.567 29.9028 33.6858 30.4993C32.8046 31.0958 31.736 31.3505 30.6805 31.2156C29.6249 31.0808 28.6548 30.5656 27.9518 29.7667C27.2489 28.9678 26.8614 27.94 26.862 26.8758V25.4175H37.0703C37.2618 25.4176 37.4515 25.3799 37.6285 25.3066C37.8054 25.2333 37.9662 25.1259 38.1016 24.9905C38.2371 24.8551 38.3445 24.6943 38.4177 24.5173C38.491 24.3404 38.5287 24.1507 38.5286 23.9592C38.5286 23.0016 38.34 22.0534 37.9736 21.1688C37.6072 20.2841 37.0701 19.4803 36.393 18.8032C35.7159 18.1261 34.912 17.589 34.0274 17.2226C33.1427 16.8561 32.1945 16.6675 31.237 16.6675C30.2794 16.6675 29.3312 16.8561 28.4466 17.2226C27.5619 17.589 26.7581 18.1261 26.081 18.8032C25.4039 19.4803 24.8668 20.2841 24.5004 21.1688C24.1339 22.0534 23.9453 23.0016 23.9453 23.9592V26.8758C23.9447 28.6509 24.5919 30.3652 25.7653 31.697C26.9387 33.0289 28.5578 33.8868 30.3188 34.1098C32.0798 34.3328 33.8616 33.9056 35.33 32.9083C36.7984 31.911 37.8524 30.4122 38.2944 28.6931C38.3416 28.5075 38.3518 28.3145 38.3244 28.125C38.297 27.9356 38.2325 27.7534 38.1346 27.5888C38.0367 27.4243 37.9074 27.2807 37.754 27.1661C37.6006 27.0516 37.4261 26.9685 37.2405 26.9214ZM31.237 19.5842C32.394 19.5846 33.504 20.0416 34.326 20.8559C34.7824 21.3227 35.1303 21.8843 35.3449 22.5008H27.1308C27.4304 21.6503 27.9859 20.9133 28.7211 20.391C29.4563 19.8688 30.3352 19.587 31.237 19.5842ZM28.3203 15.2092H34.1536C34.5404 15.2092 34.9114 15.0555 35.1848 14.782C35.4583 14.5086 35.612 14.1376 35.612 13.7508C35.612 13.3641 35.4583 12.9931 35.1848 12.7196C34.9114 12.4462 34.5404 12.2925 34.1536 12.2925H28.3203C27.9335 12.2925 27.5626 12.4462 27.2891 12.7196C27.0156 12.9931 26.862 13.3641 26.862 13.7508C26.862 14.1376 27.0156 14.5086 27.2891 14.782C27.5626 15.0555 27.9335 15.2092 28.3203 15.2092ZM19.4507 22.0884C20.229 21.2605 20.7477 20.2228 20.9426 19.1033C21.1375 17.9839 21.0001 16.8319 20.5473 15.7898C20.0946 14.7476 19.3464 13.8609 18.3952 13.2394C17.444 12.6179 16.3316 12.2887 15.1953 12.2925H7.90365C7.71212 12.2925 7.52246 12.3301 7.3455 12.4034C7.16855 12.4767 7.00776 12.5841 6.87233 12.7195C6.7369 12.855 6.62949 13.0157 6.55622 13.1927C6.48295 13.3697 6.44526 13.5593 6.44531 13.7508V32.7092C6.44526 32.9007 6.48295 33.0904 6.55622 33.2673C6.62949 33.4443 6.73691 33.6051 6.87234 33.7405C7.00777 33.8759 7.16855 33.9833 7.34551 34.0566C7.52246 34.1299 7.71212 34.1676 7.90365 34.1675H15.9245C17.3436 34.1701 18.7252 33.7117 19.8614 32.8614C20.9976 32.011 21.827 30.8147 22.2247 29.4524C22.6224 28.0901 22.5669 26.6355 22.0666 25.3075C21.5664 23.9794 20.6484 22.8497 19.4507 22.0884ZM9.36198 15.2092H15.1953C15.9689 15.2092 16.7107 15.5165 17.2577 16.0635C17.8047 16.6104 18.112 17.3523 18.112 18.1258C18.112 18.8994 17.8047 19.6413 17.2577 20.1882C16.7107 20.7352 15.9689 21.0425 15.1953 21.0425H9.36198V15.2092ZM15.9245 31.2508H9.36198V23.9592H15.9245C16.8914 23.9592 17.8187 24.3433 18.5025 25.027C19.1862 25.7107 19.5703 26.6381 19.5703 27.605C19.5703 28.5719 19.1862 29.4993 18.5025 30.183C17.8187 30.8667 16.8914 31.2508 15.9245 31.2508Z" fill="white"/>
</svg>
