<svg width="45" height="45" viewBox="0 0 45 45" fill="none" xmlns="http://www.w3.org/2000/svg">
<rect width="45" height="45" fill="black"/>
<path d="M32.4598 18.7668C32.326 18.5689 32.1457 18.4069 31.9346 18.295C31.7235 18.1831 31.4882 18.1248 31.2493 18.1252H26.8743V15.2085H30.0827C30.4695 15.2085 30.8404 15.0549 31.1139 14.7814C31.3874 14.5079 31.541 14.1369 31.541 13.7502V7.91683C31.541 7.53006 31.3874 7.15912 31.1139 6.88563C30.8404 6.61214 30.4695 6.4585 30.0827 6.4585H25.416C23.1727 6.4585 21.0213 7.34964 19.4351 8.93588C17.8488 10.5221 16.9577 12.6735 16.9577 14.9168V18.1252H13.7493C13.3626 18.1252 12.9916 18.2788 12.7182 18.5523C12.4447 18.8258 12.291 19.1967 12.291 19.5835V25.4168C12.291 25.8036 12.4447 26.1745 12.7182 26.448C12.9916 26.7215 13.3626 26.8752 13.7493 26.8752H16.9577V37.0835C16.9577 37.4703 17.1113 37.8412 17.3848 38.1147C17.6583 38.3882 18.0292 38.5418 18.416 38.5418H25.416C25.8028 38.5418 26.1737 38.3882 26.4472 38.1147C26.7207 37.8412 26.8743 37.4703 26.8743 37.0835V26.8752H28.916C29.2081 26.8754 29.4935 26.788 29.7353 26.6242C29.9771 26.4604 30.1642 26.2278 30.2723 25.9564L32.6056 20.1231C32.6937 19.9023 32.7264 19.6632 32.701 19.4269C32.6756 19.1905 32.5928 18.9639 32.4598 18.7668ZM27.9243 23.9585H25.416C25.0292 23.9585 24.6583 24.1121 24.3848 24.3856C24.1113 24.6591 23.9577 25.0301 23.9577 25.4168V35.6252H19.8743V25.4168C19.8743 25.0301 19.7207 24.6591 19.4472 24.3856C19.1737 24.1121 18.8028 23.9585 18.416 23.9585H15.2077V21.0418H18.416C18.8028 21.0418 19.1737 20.8882 19.4472 20.6147C19.7207 20.3412 19.8743 19.9703 19.8743 19.5835V14.9168C19.8782 13.4483 20.4633 12.041 21.5017 11.0025C22.5401 9.9641 23.9475 9.37901 25.416 9.37516H28.6243V12.2918H27.4577C26.9639 12.2199 26.4606 12.2501 25.979 12.3805C25.4974 12.511 25.0477 12.7389 24.6577 13.0502C24.421 13.2979 24.237 13.5911 24.1167 13.9119C23.9964 14.2327 23.9423 14.5745 23.9577 14.9168V19.5835C23.9577 19.9703 24.1113 20.3412 24.3848 20.6147C24.6583 20.8882 25.0292 21.0418 25.416 21.0418H29.091L27.9243 23.9585Z" fill="white"/>
</svg>
