<svg width="45" height="45" viewBox="0 0 45 45" fill="none" xmlns="http://www.w3.org/2000/svg">
<rect width="45" height="45" fill="black"/>
<path d="M22.4993 15.2082C21.0572 15.2082 19.6474 15.6358 18.4483 16.437C17.2492 17.2383 16.3146 18.3771 15.7627 19.7094C15.2108 21.0418 15.0664 22.5079 15.3478 23.9224C15.6291 25.3368 16.3236 26.6361 17.3434 27.6558C18.3631 28.6756 19.6624 29.37 21.0768 29.6514C22.4913 29.9327 23.9574 29.7883 25.2897 29.2365C26.6221 28.6846 27.7609 27.75 28.5621 26.5509C29.3634 25.3518 29.791 23.942 29.791 22.4998C29.791 20.566 29.0228 18.7113 27.6553 17.3439C26.2879 15.9764 24.4332 15.2082 22.4993 15.2082ZM22.4993 26.8748C21.6341 26.8748 20.7882 26.6182 20.0687 26.1375C19.3493 25.6568 18.7885 24.9735 18.4574 24.1741C18.1262 23.3747 18.0396 22.495 18.2084 21.6463C18.3772 20.7976 18.7939 20.0181 19.4058 19.4062C20.0176 18.7944 20.7972 18.3777 21.6458 18.2089C22.4945 18.0401 23.3742 18.1267 24.1736 18.4579C24.973 18.789 25.6563 19.3498 26.137 20.0692C26.6178 20.7887 26.8743 21.6345 26.8743 22.4998C26.8743 23.6602 26.4134 24.773 25.5929 25.5934C24.7725 26.4139 23.6597 26.8748 22.4993 26.8748ZM29.791 13.7498C29.5026 13.7498 29.2206 13.8354 28.9808 13.9956C28.741 14.1559 28.5541 14.3836 28.4437 14.6501C28.3333 14.9166 28.3044 15.2098 28.3607 15.4927C28.417 15.7756 28.5559 16.0354 28.7598 16.2394C28.9638 16.4433 29.2236 16.5822 29.5065 16.6385C29.7894 16.6948 30.0826 16.6659 30.3491 16.5555C30.6156 16.4451 30.8433 16.2582 31.0036 16.0184C31.1638 15.7786 31.2493 15.4966 31.2493 15.2082C31.2493 14.8214 31.0957 14.4505 30.8222 14.177C30.5487 13.9035 30.1778 13.7498 29.791 13.7498ZM36.9952 17.0165C36.971 15.7702 36.7343 14.5373 36.2952 13.3707C35.888 12.3091 35.2621 11.345 34.4581 10.5411C33.6542 9.73709 32.6901 9.11119 31.6285 8.704C30.4619 8.2649 29.2289 8.02817 27.9827 8.004C26.5681 7.9165 26.1014 7.9165 22.4993 7.9165C18.8973 7.9165 18.4306 7.9165 17.016 8.004C15.7698 8.02817 14.5368 8.2649 13.3702 8.704C12.3086 9.11119 11.3445 9.73709 10.5406 10.5411C9.7366 11.345 9.11071 12.3091 8.70352 13.3707C8.26441 14.5373 8.02768 15.7702 8.00352 17.0165C7.91602 18.4457 7.91602 18.9123 7.91602 22.4998C7.91602 26.0873 7.91602 26.554 8.00352 27.9832C8.02768 29.2294 8.26441 30.4624 8.70352 31.629C9.11071 32.6906 9.7366 33.6546 10.5406 34.4586C11.3445 35.2626 12.3086 35.8885 13.3702 36.2957C14.5368 36.7348 15.7698 36.9715 17.016 36.9957C18.4743 36.9957 18.8973 37.0832 22.4993 37.0832C26.1014 37.0832 26.5681 37.0832 27.9827 36.9957C29.2289 36.9715 30.4619 36.7348 31.6285 36.2957C32.6901 35.8885 33.6542 35.2626 34.4581 34.4586C35.2621 33.6546 35.888 32.6906 36.2952 31.629C36.7343 30.4624 36.971 29.2294 36.9952 27.9832C36.9952 26.5248 37.0827 26.0873 37.0827 22.4998C37.0827 18.9123 37.0827 18.4457 36.9952 17.0165ZM34.0785 27.8519C34.053 28.7774 33.8807 29.693 33.5681 30.5644C33.3097 31.2533 32.9012 31.8759 32.3723 32.3873C31.8639 32.9165 31.24 33.3208 30.5493 33.5686C29.6758 33.8939 28.7542 34.0714 27.8223 34.0936C26.4514 34.0936 26.0285 34.1665 22.4848 34.1665C18.941 34.1665 18.5327 34.1665 17.1618 34.1665C16.2315 34.1425 15.3109 33.9702 14.4348 33.6561C13.7459 33.3977 13.1232 32.9892 12.6118 32.4603C12.0827 31.9519 11.6784 31.328 11.4306 30.6373C11.1066 29.7685 10.9291 28.8518 10.9056 27.9248C10.9056 26.4665 10.9056 26.1019 10.9056 22.5728C10.9056 19.0436 10.9056 18.6207 10.9056 17.2207C10.9307 16.2891 11.1081 15.3679 11.4306 14.4936C11.6822 13.8091 12.0862 13.1907 12.6118 12.6853C13.1202 12.1561 13.7441 11.7518 14.4348 11.504C15.3083 11.1786 16.23 11.0012 17.1618 10.979C18.5327 10.8332 18.9556 10.8332 22.4993 10.8332C26.0431 10.8332 26.466 10.8332 27.8368 10.8332C28.7733 10.857 29.6995 11.0343 30.5785 11.3582C31.263 11.6098 31.8814 12.0137 32.3868 12.5394C32.916 13.0478 33.3203 13.6717 33.5681 14.3623C33.9251 15.2498 34.1273 16.1919 34.166 17.1478C34.166 18.6061 34.2389 18.9707 34.2389 22.4998C34.2389 26.029 34.166 26.4519 34.166 27.8519H34.0785Z" fill="white"/>
</svg>
