<svg width="45" height="45" viewBox="0 0 45 45" fill="none" xmlns="http://www.w3.org/2000/svg">
<rect width="45" height="45" fill="black"/>
<path d="M30.5205 18.1234C29.2149 18.1229 27.9295 18.4458 26.7792 19.0634C26.6742 18.7869 26.4876 18.5489 26.2442 18.3811C26.0008 18.2132 25.712 18.1233 25.4163 18.1234H19.583C19.3914 18.1233 19.2017 18.161 19.0247 18.2342C18.8478 18.3075 18.687 18.4149 18.5515 18.5503C18.4161 18.6858 18.3087 18.8466 18.2354 19.0236C18.1622 19.2006 18.1245 19.3902 18.1246 19.5818V37.0818C18.1245 37.2733 18.1622 37.463 18.2354 37.64C18.3087 37.817 18.4161 37.9778 18.5515 38.1132C18.687 38.2487 18.8478 38.3561 19.0247 38.4293C19.2017 38.5026 19.3914 38.5402 19.583 38.5401H25.4163C25.6078 38.5402 25.7975 38.5026 25.9745 38.4293C26.1515 38.3561 26.3123 38.2487 26.4477 38.1132C26.5832 37.9778 26.6906 37.817 26.7638 37.64C26.8371 37.463 26.8747 37.2733 26.8746 37.0818V29.0609C26.8746 28.6742 27.0283 28.3032 27.3018 28.0298C27.5752 27.7563 27.9462 27.6026 28.333 27.6026C28.7197 27.6026 29.0907 27.7563 29.3642 28.0298C29.6376 28.3032 29.7913 28.6742 29.7913 29.0609V37.0818C29.7912 37.2733 29.8288 37.463 29.9021 37.64C29.9753 37.817 30.0827 37.9778 30.2182 38.1132C30.3536 38.2487 30.5144 38.3561 30.6914 38.4293C30.8684 38.5026 31.0581 38.5402 31.2496 38.5401H37.083C37.2745 38.5402 37.4642 38.5026 37.6412 38.4293C37.8182 38.3561 37.979 38.2487 38.1144 38.1132C38.2498 37.9778 38.3573 37.817 38.4305 37.64C38.5038 37.463 38.5414 37.2733 38.5413 37.0818V26.1443C38.5386 24.0178 37.6927 21.9792 36.1891 20.4756C34.6855 18.972 32.6469 18.1261 30.5205 18.1234ZM35.6246 35.6234H32.708V29.0609C32.708 27.9006 32.247 26.7878 31.4265 25.9674C30.6061 25.1469 29.4933 24.6859 28.333 24.6859C27.1726 24.6859 26.0598 25.1469 25.2394 25.9674C24.4189 26.7878 23.958 27.9006 23.958 29.0609V35.6234H21.0413V21.0401H23.958V22.0655C23.9581 22.3677 24.0521 22.6623 24.2269 22.9088C24.4018 23.1553 24.6488 23.3414 24.9339 23.4414C25.219 23.5414 25.5282 23.5505 25.8187 23.4673C26.1092 23.3841 26.3667 23.2128 26.5556 22.977C27.2101 22.1458 28.1078 21.5397 29.1234 21.2434C30.1389 20.947 31.2217 20.9752 32.2205 21.3241C33.2192 21.6729 34.0842 22.3249 34.6944 23.189C35.3047 24.0532 35.6299 25.0864 35.6246 26.1443V35.6234ZM15.208 18.1234H9.37462C9.18308 18.1233 8.9934 18.161 8.81641 18.2342C8.63943 18.3075 8.47862 18.4149 8.34318 18.5503C8.20774 18.6858 8.10032 18.8466 8.02707 19.0236C7.95383 19.2006 7.91618 19.3902 7.91629 19.5818V37.0818C7.91618 37.2733 7.95382 37.463 8.02707 37.64C8.10032 37.817 8.20774 37.9778 8.34318 38.1132C8.47862 38.2487 8.63943 38.3561 8.81641 38.4293C8.99339 38.5026 9.18308 38.5402 9.37462 38.5401H15.208C15.3995 38.5402 15.5892 38.5026 15.7662 38.4293C15.9431 38.3561 16.104 38.2487 16.2394 38.1132C16.3748 37.9778 16.4823 37.817 16.5555 37.64C16.6288 37.463 16.6664 37.2733 16.6663 37.0818V19.5818C16.6664 19.3902 16.6288 19.2006 16.5555 19.0236C16.4823 18.8466 16.3748 18.6858 16.2394 18.5503C16.104 18.4149 15.9431 18.3075 15.7662 18.2342C15.5892 18.161 15.3995 18.1233 15.208 18.1234ZM13.7496 35.6234H10.833V21.0401H13.7496V35.6234ZM12.3127 7.24866C11.6744 7.21046 11.0351 7.30247 10.4336 7.5191C9.83201 7.73573 9.28081 8.07245 8.81348 8.50879C8.34615 8.94513 7.97246 9.47197 7.71512 10.0573C7.45779 10.6426 7.3222 11.2741 7.31659 11.9134C7.31098 12.5528 7.43547 13.1866 7.6825 13.7763C7.92952 14.366 8.29391 14.8993 8.75351 15.3438C9.21312 15.7883 9.75832 16.1346 10.356 16.3617C10.9536 16.5889 11.5912 16.6921 12.23 16.6651H12.2713C12.9113 16.7031 13.5522 16.6103 14.155 16.3922C14.7578 16.1741 15.3098 15.8354 15.7773 15.3968C16.2448 14.9582 16.618 14.4289 16.874 13.8412C17.13 13.2535 17.2635 12.6197 17.2663 11.9787C17.2691 11.3377 17.1412 10.7028 16.8903 10.1129C16.6395 9.52295 16.271 8.99036 15.8074 8.54766C15.3437 8.10496 14.7947 7.76144 14.1938 7.5381C13.593 7.31475 12.9529 7.21626 12.3126 7.24866H12.3127ZM12.2714 13.7484H12.23C11.9778 13.7791 11.722 13.7554 11.4797 13.6791C11.2374 13.6027 11.0142 13.4755 10.8251 13.3058C10.6361 13.1361 10.4854 12.928 10.3834 12.6954C10.2813 12.4627 10.2302 12.2109 10.2334 11.9569C10.2334 10.8688 11.0494 10.1653 12.3127 10.1653C12.5674 10.1313 12.8265 10.1524 13.0725 10.227C13.3184 10.3016 13.5455 10.428 13.7385 10.5978C13.9315 10.7675 14.0858 10.9767 14.1912 11.2111C14.2965 11.4456 14.3504 11.6999 14.3492 11.9569C14.3492 13.045 13.5331 13.7484 12.2714 13.7484Z" fill="white"/>
</svg>
