<svg width="45" height="45" viewBox="0 0 45 45" fill="none" xmlns="http://www.w3.org/2000/svg">
<rect width="45" height="45" fill="black"/>
<path d="M37.47 8.54039C37.0548 8.19496 36.5537 7.96857 36.02 7.88531C35.4863 7.80206 34.9401 7.86505 34.4394 8.06758L8.30474 18.6191C7.74583 18.8491 7.27007 19.2436 6.94061 19.7502C6.61115 20.2569 6.44357 20.8518 6.4601 21.4559C6.47663 22.0601 6.67651 22.6449 7.03319 23.1328C7.38987 23.6207 7.88649 23.9885 8.45713 24.1876L13.7436 26.0262L16.6902 35.7702C16.7302 35.9004 16.7883 36.0243 16.8628 36.1383C16.8741 36.1558 16.89 36.1688 16.9021 36.1858C16.9881 36.3059 17.0921 36.412 17.2104 36.5005C17.244 36.5261 17.2762 36.5501 17.3122 36.5729C17.4507 36.6648 17.604 36.7319 17.7654 36.7714L17.7826 36.7729L17.7924 36.7771C17.8894 36.7968 17.9882 36.8068 18.0872 36.807C18.0967 36.807 18.1052 36.8024 18.1146 36.8022C18.264 36.7996 18.4122 36.7739 18.5537 36.726C18.5866 36.7147 18.6149 36.696 18.6468 36.6824C18.7524 36.6387 18.8524 36.5826 18.9447 36.5154C19.0187 36.453 19.0927 36.3907 19.1667 36.3284L23.1074 31.9777L28.9849 36.5307C29.5023 36.9335 30.1392 37.1525 30.795 37.153C31.4821 37.1522 32.148 36.9151 32.6811 36.4815C33.2143 36.048 33.5821 35.4444 33.723 34.7718L38.4811 11.4143C38.589 10.8886 38.5518 10.3435 38.3737 9.83728C38.1956 9.33105 37.8832 8.88277 37.47 8.54039ZM18.6655 26.4904C18.4633 26.6918 18.325 26.9485 18.2681 27.2281L17.8168 29.4215L16.6733 25.6399L22.6018 22.5527L18.6655 26.4904ZM30.7722 34.225L23.8266 28.8445C23.536 28.62 23.1715 28.5132 22.8057 28.5454C22.4399 28.5776 22.0996 28.7464 21.8527 29.0182L20.5907 30.4112L21.0367 28.2435L31.3661 17.9141C31.6126 17.6679 31.7628 17.3415 31.7895 16.9941C31.8162 16.6467 31.7175 16.3012 31.5114 16.0202C31.3054 15.7392 31.0055 15.5414 30.6661 15.4624C30.3267 15.3835 29.9703 15.4287 29.6613 15.5899L14.837 23.3083L9.40562 21.3208L35.6243 10.8318L30.7722 34.225Z" fill="white"/>
</svg>
