<svg width="45" height="45" viewBox="0 0 45 45" fill="none" xmlns="http://www.w3.org/2000/svg">
<rect width="45" height="45" fill="black"/>
<path d="M37.0827 14.5519C37.0663 13.9228 37.0176 13.2948 36.9368 12.6707C36.828 12.124 36.6465 11.5943 36.3973 11.0957C36.1366 10.5548 35.7866 10.0618 35.3618 9.63734C34.9332 9.21764 34.4411 8.8682 33.9035 8.60192C33.4042 8.35757 32.8745 8.18101 32.3285 8.07692C31.7103 7.98432 31.0868 7.93074 30.4618 7.9165H14.5514C13.9223 7.93289 13.2944 7.98157 12.6702 8.06234C12.1235 8.17123 11.5938 8.3527 11.0952 8.60192C10.5543 8.86258 10.0613 9.21263 9.63685 9.63734C9.21715 10.066 8.86771 10.5581 8.60143 11.0957C8.35708 11.595 8.18052 12.1246 8.07643 12.6707C7.98383 13.2889 7.93025 13.9124 7.91602 14.5373C7.91602 14.8144 7.91602 15.2082 7.91602 15.3248V29.6748C7.91602 29.8353 7.91602 30.1853 7.91602 30.4478C7.9324 31.0769 7.98108 31.7048 8.06185 32.329C8.17074 32.8757 8.35221 33.4054 8.60143 33.904C8.86209 34.4449 9.21214 34.9379 9.63685 35.3623C10.0655 35.782 10.5576 36.1315 11.0952 36.3978C11.5945 36.6421 12.1241 36.8187 12.6702 36.9228C13.2884 37.0154 13.9119 37.0689 14.5368 37.0832H30.4473C31.0764 37.0668 31.7043 37.0181 32.3285 36.9373C32.8752 36.8284 33.4049 36.647 33.9035 36.3978C34.4444 36.1371 34.9374 35.787 35.3618 35.3623C35.7815 34.9337 36.131 34.4416 36.3973 33.904C36.6416 33.4047 36.8182 32.875 36.9223 32.329C37.0149 31.7108 37.0684 31.0873 37.0827 30.4623C37.0827 30.1853 37.0827 29.8353 37.0827 29.6748V15.3248C37.0827 15.2082 37.0827 14.8144 37.0827 14.5519ZM22.8348 32.7082C21.0834 32.6995 19.3627 32.248 17.8327 31.3957L12.291 32.854L13.7493 27.429C12.8089 25.8488 12.3056 24.047 12.291 22.2082C12.2968 20.1416 12.914 18.123 14.0649 16.4065C15.2157 14.69 16.8488 13.3525 18.7583 12.5623C20.6679 11.7722 22.7686 11.5648 24.7958 11.9662C26.823 12.3676 28.6861 13.36 30.1504 14.8182C31.6147 16.2765 32.6148 18.1354 33.0246 20.1609C33.4345 22.1865 33.2358 24.288 32.4536 26.2008C31.6714 28.1136 30.3407 29.7522 28.629 30.9102C26.9173 32.0682 24.9013 32.6938 22.8348 32.7082ZM22.8348 13.5603C21.2887 13.5779 19.7748 14.005 18.4475 14.798C17.1201 15.591 16.0265 16.7215 15.2781 18.0746C14.5297 19.4276 14.1532 20.9548 14.187 22.5006C14.2207 24.0464 14.6635 25.5557 15.4702 26.8748L15.6743 27.2103L14.7993 30.404L18.1243 29.4998L18.4452 29.6894C19.7716 30.4707 21.2808 30.8883 22.8202 30.8998C25.1408 30.8998 27.3664 29.978 29.0074 28.337C30.6483 26.6961 31.5702 24.4705 31.5702 22.1498C31.5702 19.8292 30.6483 17.6036 29.0074 15.9627C27.3664 14.3217 25.1408 13.3998 22.8202 13.3998L22.8348 13.5603ZM27.9389 25.9853C27.7479 26.3039 27.4922 26.5788 27.1882 26.7923C26.8842 27.0059 26.5388 27.1532 26.1743 27.2248C25.6297 27.3244 25.069 27.2893 24.541 27.1228C24.0442 26.9674 23.5572 26.7824 23.0827 26.5686C21.2798 25.6639 19.7423 24.3073 18.6202 22.6311C18.0104 21.8545 17.6405 20.9169 17.5556 19.9332C17.5469 19.5245 17.6242 19.1186 17.7825 18.7418C17.9408 18.3649 18.1765 18.0256 18.4743 17.7457C18.5621 17.6462 18.6697 17.5662 18.7903 17.511C18.9109 17.4557 19.0417 17.4264 19.1743 17.4248H19.5827C19.7431 17.4248 19.9618 17.4248 20.166 17.8769C20.3702 18.329 20.9098 19.6853 20.9827 19.8165C21.0185 19.8865 21.0372 19.9639 21.0372 20.0425C21.0372 20.1211 21.0185 20.1986 20.9827 20.2686C20.9182 20.4271 20.8297 20.5746 20.7202 20.7061C20.5889 20.8665 20.4431 21.0561 20.3264 21.1728C20.2098 21.2894 20.0639 21.4353 20.2098 21.6978C20.6066 22.3674 21.0977 22.9764 21.6681 23.5061C22.2892 24.0549 22.9994 24.4939 23.7681 24.804C24.0306 24.9353 24.191 24.9207 24.3368 24.804C24.4827 24.6873 24.9931 24.0457 25.1681 23.7832C25.3431 23.5207 25.5181 23.5644 25.7514 23.6519C25.9848 23.7394 27.2827 24.3665 27.5452 24.4978C27.8077 24.629 27.9681 24.6873 28.041 24.804C28.1043 25.1857 28.0691 25.5772 27.9389 25.9415V25.9853Z" fill="white"/>
</svg>
