<svg width="45" height="45" viewBox="0 0 45 45" fill="none" xmlns="http://www.w3.org/2000/svg">
<rect width="45" height="45" fill="black"/>
<path d="M26.7139 20.2835L22.3389 17.746C21.9502 17.5164 21.5071 17.3952 21.0556 17.3952C20.6041 17.3952 20.161 17.5164 19.7723 17.746C19.3806 17.9668 19.0559 18.2894 18.8326 18.6796C18.6092 19.0698 18.4955 19.5131 18.5035 19.9627V25.0377C18.4955 25.4872 18.6092 25.9305 18.8326 26.3208C19.0559 26.711 19.3806 27.0335 19.7723 27.2543C20.161 27.484 20.6041 27.6051 21.0556 27.6051C21.5071 27.6051 21.9502 27.484 22.3389 27.2543L26.7139 24.7168C27.088 24.4873 27.3969 24.1656 27.6112 23.7827C27.8255 23.3997 27.938 22.9682 27.938 22.5293C27.938 22.0905 27.8255 21.659 27.6112 21.276C27.3969 20.893 27.088 20.5714 26.7139 20.3418V20.2835ZM21.391 24.4252V20.5752L24.716 22.5002L21.391 24.4252ZM32.7077 10.8335H12.291C11.1307 10.8335 10.0179 11.2944 9.19742 12.1149C8.37695 12.9354 7.91602 14.0482 7.91602 15.2085V29.7918C7.91602 30.9522 8.37695 32.0649 9.19742 32.8854C10.0179 33.7059 11.1307 34.1668 12.291 34.1668H32.7077C33.868 34.1668 34.9808 33.7059 35.8013 32.8854C36.6217 32.0649 37.0827 30.9522 37.0827 29.7918V15.2085C37.0827 14.0482 36.6217 12.9354 35.8013 12.1149C34.9808 11.2944 33.868 10.8335 32.7077 10.8335ZM34.166 29.7918C34.166 30.1786 34.0124 30.5495 33.7389 30.823C33.4654 31.0965 33.0945 31.2502 32.7077 31.2502H12.291C11.9042 31.2502 11.5333 31.0965 11.2598 30.823C10.9863 30.5495 10.8327 30.1786 10.8327 29.7918V15.2085C10.8327 14.8217 10.9863 14.4508 11.2598 14.1773C11.5333 13.9038 11.9042 13.7502 12.291 13.7502H32.7077C33.0945 13.7502 33.4654 13.9038 33.7389 14.1773C34.0124 14.4508 34.166 14.8217 34.166 15.2085V29.7918Z" fill="white"/>
</svg>
